<svg xmlns="http://www.w3.org/2000/svg" viewBox="0 0 1529 385.25" class="grass"><g id="Layer_2" data-name="Layer 2"><g id="Layer_1-2" data-name="Layer 1"><path d="M0,354.25H61.31c-.4-6.74-.54-13.31-1.22-19.83-2.71-26.17-7.79-51.79-17.92-76.23-8.73-21.08-20.36-40.37-36.11-57-3.58-3.76-5.62-7.48-5-12.72.36-2.78.07-5.65.07-9.78C40.62,205,62.4,242.18,76.36,285.34c-1.06-5.42-2-10.87-3.22-16.25-9.87-42.55-28.77-80-61.94-109.36-1.24-1.1-2.54-2.16-3.88-3.13-7-5.06-7-5-5.6-15,5.42,2.45,11,4.3,15.87,7.34,6.74,4.23,13.56,8.72,19.2,14.26a71.5,71.5,0,0,0,27,16.8c20.55,7.25,35.09,22.53,48,39.33,14.62,19,23.8,40.69,30,63.7a12,12,0,0,0,2.12,4.69c0-3.15.1-6.3,0-9.45-2.2-60.23-13.79-118.85-30.23-176.65-2-7-3.46-14.15-5-21.27-.3-1.42.2-3,.32-4.52l1.43-.59c2.59,3.11,5.51,6,7.73,9.36,13.33,20.26,22.65,42.43,30.6,65.22,3,8.71,5.72,17.54,9.54,26.14-.9-5.44-1.48-11-2.74-16.32-7.87-33.49-15.92-66.93-23.85-100.4-1-4.2-1.74-8.46-2.49-12.71-.13-.72.28-1.54.71-3.69,2.32,2.19,4.25,3.57,5.62,5.37,11.77,15.53,19.76,33.13,27,51a458.61,458.61,0,0,1,30.19,116c1.84,14.52,2.81,29.16,4.19,43.74.11,1.23.33,2.45.51,3.68l1.8.11c.44-4.74,1.56-9.52,1.22-14.19-3.38-47.19-14.17-93-26.89-138.35-1.12-4-1.8-8.11-2.56-12.19-.19-1.07.09-2.24,1.27-4.14,2.15,2.49,4.87,4.68,6.37,7.52,7.22,13.65,15,27.1,20.87,41.35,7,17.17,12.25,35.09,18.37,53,1.68-6.45,3.53-13,5.06-19.58,3.75-16.2,7.3-32.44,11.07-48.63a61.1,61.1,0,0,1,3.3-9.38c.44-1.07,1.59-1.85,2.42-2.76.9.86,2.16,1.56,2.64,2.62,1.18,2.56,2,5.28,3,8,7.62,21.64,13,43.71,13.23,66.9l1-9.27a40,40,0,0,1,1.87-9.57c8.75,13.24,8.75,28.33,10.14,43.25.53-5.1.84-10.24,1.65-15.3s2.16-10.3,3.44-16.22l5.07,3.56c1.25-15.29,2.44-29.92,3.63-44.55l1.53-.4c1.28,2.67,2.9,5.23,3.8,8a113.21,113.21,0,0,1,4.41,46.42c-1.54,15-4.47,29.93-6.13,45-.82,7.43-.14,15,.71,22.55,10-27.51,14.74-55.83,15.3-84.92l1.6-.24c1,1.73,2.47,3.36,2.88,5.22,1.6,7.28,3.6,14.59,4.14,22,2,27.1-3.55,53.33-10.31,79.34-2.71,10.45-5.27,21-8.92,31.15-4.18,11.59-1.76,23.32-2.95,35.27h22c.21-3.67.53-7.28.6-10.89.74-34,1.13-68,2.26-102,.74-22.11,2.31-44.21,4-66.27.58-7.74,2.4-15.39,3.86-23,.37-2,1.51-3.8,2.3-5.7l1.55-.18c.92,2.11,2.32,4.15,2.66,6.35,2.15,13.76,4.6,27.51,5.93,41.36,2,21,3.23,42.11,4.81,63.62.88-24.13,1.5-47.83,2.68-71.5,1.18-23.4,1.49-47,8.17-69.63l2.16-.19c.83,1.82,2.08,3.56,2.42,5.46,1.77,9.81,3.35,19.66,4.92,29.5.4,2.47-.08,4.85,3.28,6.29,1.57.67,2.32,4.27,2.66,6.66,1.82,12.5,4.21,25,4.89,37.58,2.11,38.75,3.52,77.53,5.21,116.3a3.39,3.39,0,0,0,.65,1.88c8.36-28.22,14.55-56.78,17-86.2,2.47-29.7-2.44-58.55-9.22-87.32l1.91-.71a85.23,85.23,0,0,1,5.71,7.64A122,122,0,0,1,410.62,205c1.44,16.19.95,32.54,1.31,48.83a15.62,15.62,0,0,0,.4,4.06c5.83-19.38,10.09-39.35,22.34-56.33.25,23.77-5.43,46.88-6.12,70.52,2.19-6,4.06-12.17,6.67-18,3-6.66,7.06-12.84,9.79-19.59,2.08-5.14,3-10.79,4.08-16.29,7.72-38.88,19.3-76.39,39.28-110.91,2.76-4.77,6.34-9.07,9.55-13.59l2,.79a48.41,48.41,0,0,1-.69,7.36c-5.9,23.89-12,47.72-17.84,71.62-1.81,7.42-3.11,15-4.37,22.52a13.29,13.29,0,0,0,.59,6.31c6.58,18.76,13.3,37.46,20,56.18a4.7,4.7,0,0,0,1.18,2.12c-3.15-23.79-10.44-46.89-11.67-71.09,11.46,15.3,16.58,33.37,23.54,50.63-4.28-28.61-12.57-56.51-15.71-85.28l1.79-.84c1.31,1.66,3.08,3.13,3.88,5,7.13,16.81,15,33.38,20.93,50.62,15.35,44.93,24.66,91.14,26.51,138.71.07,1.81.31,3.6.51,5.7h23.78c-2.25-12.71-4.31-25.23-6.68-37.69C555.54,263,538.31,211.63,521.84,160a164.68,164.68,0,0,1-4.24-16.34c-.51-2.46-.08-5.11-.08-7.68l1.65-.83,13.19,18.63c.23-2.15.46-4.26.69-6.38l2-.48c33.82,51.66,53.78,109,68.18,168.8-1.2-6.88-2.31-13.78-3.6-20.64-9.6-50.94-24.89-100.3-41-149.45-3.32-10.09-6.1-20.37-8.85-30.64-.79-2.93-.6-6.12-.86-9.19l1.54-.83c1.71,2,3.81,3.79,5.06,6,10.19,18.49,21.11,36.65,30,55.74,8.86,18.93,15.66,38.82,23.37,58.3l1.56,4c1-10,1.52-19,2.73-27.9,2.88-21.22,8.69-41.54,19.94-60,1.65-2.71,3.93-5,5.92-7.53l1.44.57c0,1.51.05,3,0,4.55-.1,2.73-3,5.75,1,8.1.41.24-.13,2.19-.34,3.33-2.52,14.07-5.54,28.07-7.48,42.21-2.89,21.11-1.43,42.23,1.64,63.24,1.32,9,3.06,18,4.85,28.42a37.13,37.13,0,0,0,2.07-3.88c7.43-22.05,7-22,4.53-45.18-3.94-37.23-1.49-73.86,13.35-108.82,2.71-6.39,6.48-12.35,10-18.38a11.51,11.51,0,0,1,5.15-4.23c-7.8,36.33-13.83,72.59-8.87,110.5.94-1.46,1.65-2.4,2.19-3.44,6.41-12.22,12.9-24.41,19.09-36.75.9-1.8.37-4.32.44-5.34l11.66-9.93c-.2,3.89-.36,6.88-.49,9.38l36.25,19.53c1.05-5.93,2.36-12.55,3.27-19.21.14-1-1.33-2.61-2.42-3.48-7-5.6-14.18-11-21.21-16.6-3.85-3.06-7.56-6.3-11.34-9.45l.66-1.55a58.24,58.24,0,0,1,6.35,1c20.68,5.38,37.94,16.5,53,31.41,2.94,2.89,6.93,4.83,10.67,6.74,9,4.58,18.1,8.94,27.23,13.24,1.58.74,3.52.71,4.71.94,2.69,3.24,5.17,6.93,8.31,9.91,24.1,22.83,38.18,51.27,46.87,82.79.26,1,.47,1.94.78,2.88.16.44.51.83,1.64,1.17-1-14.26-1.63-28.55-3-42.78s-2.92-28.41-5.1-42.51-5-28.4-8-42.48c-3-13.91-6.79-27.66-10.21-41.48S829.46,90.71,828,76.45l1.62-1c1.78,1.68,3.85,3.13,5.29,5.06,12.22,16.41,20.23,35,27.92,53.8,1.93,4.7,3.66,9.48,6.57,13.95-1.57-8.4-2.68-16.92-4.77-25.19C855.46,87,846,51,836.75,14.9c-1.16-4.52-1.63-9.22-2.42-13.84l2-1.06c2.38,2.31,5.36,4.26,7,7,8.28,13.44,17.16,26.63,24.11,40.75C888.82,91,902,137,909.89,184.47a595.83,595.83,0,0,1,6.8,131.45c-.56,10.31-1.74,20.57-2.6,30.86-.19,2.3-.26,4.61-.38,6.86,7.57,1.78,8.23,1.38,8.44-5.67.73-23.64,2.21-47.29,1.92-70.91-.59-47.85-8.94-94.65-21.33-140.78-3.11-11.55-6.07-23.15-9-34.76a50.75,50.75,0,0,1-.79-6.79l1.22-.8c1.53,1.49,3.55,2.72,4.52,4.52,7.8,14.46,16.53,28.56,22.85,43.65,16,38.16,24.9,78.2,28.36,119.4,1.18,14.06,1.77,28.16,2.7,43.4,15.07-43,27.27-85.63,28.23-131,6.76,8.81,8.5,18.88,8.92,29.15s.09,20.57,1.27,31.12c1.83-7.15,3.8-14.28,5.44-21.48,1.7-7.45,3.34-14.94,4.5-22.49s1.8-15.2,2.45-22.83,1-15.1,1.54-22.65l1.75-.45c1.34,2.84,3,5.58,4,8.54,4.3,13.17,4.85,26.79,4.52,40.49-.61,26.15-5.84,51.58-12.87,76.6-7.47,26.55-15.91,52.83-23.92,79.23-.48,1.55-.91,3.12-1.36,4.69l1,1.07c1.35-1.08,3.49-1.91,3.94-3.29,13.12-39.93,29.16-79,37.38-120.41,2.58-13,3.28-26.38,4.79-39.59a63.52,63.52,0,0,1,1.58-10.21c6,7.32,6.18,16.38,8.32,25.08,12-24.5,23.05-49.38,39.58-71.1l1.63.46c0,2.94.69,6.08-.11,8.78-6.74,22.71-13.58,45.39-20.73,68a977.83,977.83,0,0,0-29.4,115.52c-1.58,8.47-2.73,17-4.14,25.93h23.68c.19-3.62.33-7.35.58-11.08,4-62,18.16-121.56,44.14-178.14,1.74-3.8,4.23-7.26,6.38-10.87l1.66.5c0,2.47.39,5-.07,7.39-4.54,23.51-9.23,47-13.87,70.47a50.8,50.8,0,0,0-1.08,7.85c6.9-17.26,12.29-35.17,22.44-50.87l1.6.29c0,2.12.35,4.3-.05,6.34-3.88,20.08-7.88,40.13-11.84,60.2a11.6,11.6,0,0,0-.14,4.63c4.91-14.21,8.31-29.18,15.1-42.43,7.87-15.36,6.1-29.9,2.2-45.22q-9-35.5-17.78-71.1a62.36,62.36,0,0,1-.93-7.26l1.16-.75c1.46,1.35,3.41,2.43,4.3,4.08,7.84,14.44,16.5,28.55,23,43.59,12.1,28,19.65,57.53,24.53,87.68a10.58,10.58,0,0,0,1.39,4.22c7.76,11.24,12.22,23.94,16.43,36.76a2.82,2.82,0,0,0,1,1.58c-1-23.54-6.57-46.61-6.37-70.34,12.22,17,16.52,36.95,22.34,56.4-2.15-37.09-.11-73.32,19.38-106.33a17.56,17.56,0,0,1,5.65-5.68c-5.6,29.06-10.75,57.85-8.24,87.52,2.48,29.25,8.59,57.66,17.37,85.69.09-1.23.21-2.46.26-3.69,1.71-38.27,3.15-76.55,5.26-114.8.68-12.25,3-24.43,4.89-36.58.46-2.93.3-6.8,4.7-7.89.67-.16.87-2.62,1.11-4,1.67-10.17,3.23-20.35,5-30.5.32-1.85,1.42-3.57,2.16-5.35l1.55-.28c1,2.42,2.5,4.75,2.84,7.25,1.88,13.84,4.19,27.67,5,41.59,1.78,30.26,2.76,60.57,4,90.35,1.12-15.37,2.19-31.3,3.46-47.21.74-9.28,1.89-18.52,2.6-27.79a30.77,30.77,0,0,0-.67-8.82c-1.28-5.84-3.06-11.56-4.42-17.39a36.48,36.48,0,0,1-.43-6.21l1.41-.77,7.15,8.57,4-9.4,1.68-.08c1.06,2.78,2.48,5.49,3.09,8.36,1,4.86,1.28,9.89,2.36,14.73a89.59,89.59,0,0,0,4.34,14.61c8.4,20.27,17,40.42,25.61,60.62.62,1.48,1.2,3,1.81,4.46l1.68-.16c-.28-5.74.56-11.82-1-17.17-9.89-33.47-20.38-66.76-30.52-100.16-2-6.66-3.48-13.5-5-20.31-.38-1.76.13-3.71.23-5.57l1.26-.46c1.63,2,3.43,3.86,4.86,6,14.74,21.91,25.26,46,36.83,69.62,7,14.21,10,29.61,16.44,43.84a6.87,6.87,0,0,0,2,3c.54-6.65,1-13.31,1.64-19.94,2.37-23.19,8.23-45.33,20.18-65.56,1.78-3,4.25-5.63,6.88-9.07.79,1.77,1.29,2.35,1.27,2.92-.16,6.49,0,13-.75,19.47-.86,6.91-2.76,13.68-4.11,20.53-5.75,29.35-4.27,58.65.61,87.92a200.07,200.07,0,0,0,4.23,19.6c3.2-12.06,9.63-22.84,7.52-36.57-5.26-34.35-5-68.85,5.42-102.38,3.81-12.26,10.24-23.71,15.58-35.48a17.47,17.47,0,0,1,3-3.93,25.44,25.44,0,0,1,3.09-2.36c-.35,3.56-.32,6.1-.87,8.51-5.33,23.06-9.93,46.23-9.81,70,.06,10.77.58,21.53,1.56,32.41,9.93-18.71,18.77-37.77,31.44-54.56l1.75.43c0,1.79.41,3.7-.07,5.35q-6.75,23.46-13.77,46.84c-3.89,12.89-8.08,25.69-11.85,38.62a19,19,0,0,0-.56,9.17c3.62,15.54,7.64,31,11.53,46.45a3,3,0,0,0,1.59,2.11c.36-6.37.49-12.77,1.12-19.11q4.32-43.71,8.92-87.38a22.55,22.55,0,0,1,1.21-4.82c.8-2.33,1.69-4.73,4.6-1.62,1.22-2.6,2.24-4.77,4-8.52,1.49,3.1,2.83,4.78,3.1,6.62,1.72,11.64,4.26,23.29,4.59,35,1.16,41,1.53,81.95,2.2,122.93,0,.82.1,1.64.18,2.87h11.34c0-24.06,1.06-48.07-.3-71.94-1.34-23.55-5.13-47-7.84-70.44l2.3-.71,7.66,12.32c-.36-4.57-.73-8-.86-11.41-.12-3.09,1-4.83,4.44-2.86,2.74-16.83,2.83-33.89,8.8-49.78l2.15-.26c1,3.09,2.73,6.13,3,9.3,1.87,20.7,3.63,41.42,5,62.17.78,11.62,0,23.39,1.35,34.91,1.46,12.13,4.85,24,7.07,36.08,1.62,8.77,2.7,17.65,4.06,26.74,2.67-14.63,4.07-29.3,8.2-43.15,5.53-18.48,1.09-36.24-.83-54.27-1.61-15-3.68-30-5.48-45.08a48.43,48.43,0,0,1,0-5.78l1.57-.72c1.39,1.81,3.25,3.42,4.08,5.46,4.83,11.82,9.45,23.74,14.08,35.65.83,2.14,1.4,4.38,2.43,7.63,5.87-13.72,10-27.17,18-38.6l1.85.47c-.59,4.94-.86,10-1.82,14.83-3.25,16.47-6.85,32.88-10.07,49.36a27.17,27.17,0,0,0,0,9.89,643.51,643.51,0,0,1,9.64,85.78c.1,2-1.11,5.23,3.09,4.66v31H0ZM705.63,188.07h1.59c.83,1.9,2,3.72,2.43,5.7,1.2,5.68,2.65,11.38,3,17.13,1.26,21.1,2.52,42.22,3,63.34.59,24.49.38,49,.54,73.5,0,2.1.26,4.21.4,6.42h10.71v-5.11q0-26.49,0-53c0-6.15.67-12.36,0-18.43-2.07-18.35-4.72-36.63-7-55-.45-3.66-.07-7.43-.07-11.15l1.39-.6,6.71,10.35c.65-4.85,1.34-9.53,1.86-14.22a3.46,3.46,0,0,0-1.07-2.13c-9.42-10.56-19.62-20.2-32.33-27.35-.42,1-.81,1.67-1,2.42q-8.21,25.65-16.36,51.31c-7.62,24.23-7.59,24.24-1.62,48.82.71,2.91,1.37,5.83,2.16,8.72,1.7,6.23,3.48,12.44,5.23,18.66a5.06,5.06,0,0,0,1.55-3.45c1.8-24.57,3.31-49.17,5.49-73.71,1-10.91,3.21-21.7,5-32.51.49-2.89,1.6-5.52,5.11-3.1C703.56,192.38,704.6,190.22,705.63,188.07ZM62.32,189.62C78.9,213.59,90,239.83,97,268s9,57,8.62,86.12h23.69c0-2.12.13-3.94,0-5.72-1.35-15.57-2-31.25-4.3-46.67-4.45-29.29-14.59-56.59-31.87-80.92C84.59,208.79,74.87,197.89,62.32,189.62ZM849.23,354.14c-1-51.75-9.65-100.58-44-141.71-1.13,5.64-3.09,11.89-1.18,16.55,15.32,37.43,21.62,76.33,21,116.55,0,2.78,0,5.56,0,8.61Zm-357.09,0c-2.82-41.82-10.23-82.55-19.7-123-5,41-4.81,81.88-.94,123Zm608.81.31c5.52,0,10.66-.26,15.76.08,3.93.26,5.35-1.18,5.43-5,.6-26.78,1.68-53.56,1.8-80.34,0-12.7-1.68-25.41-2.61-38.12C1111.26,271.49,1103.68,312.13,1101,354.42Zm201-.24c-3.1-40.52-13.24-78.89-23.91-117.15l-1.41.19q1.38,58.47,2.76,117ZM230.08,311l1.08.23c1.67-5.77,4.56-11.49,4.81-17.32,1.21-27.91,1.72-55.86,2.44-83.8.05-1.82-.16-3.66-.25-5.49-4,12-7.32,24-10.19,36a42.89,42.89,0,0,0-.94,11.81c.82,18.1,1.89,36.18,2.86,54.27C230,308.1,230,309.53,230.08,311Zm524-70.61-2.19.52c.76,9.48,1,19,2.39,28.42,1.71,11.62,4.45,23.08,6.54,34.65,1.37,7.61,2.37,15.3,3.53,22.95,1.64-5.9,2.37-11.82,3.58-17.65,2.78-13.44,4.66-26.64-1.7-39.83C761.69,260,758.11,250.05,754.09,240.34Zm-94.52,66.42c-3.79,15.52-8.3,29.69-.76,43.94.75,1.4,2,3.38,3.21,3.53,3.69.47,7.48.17,11.71.17Zm733.66,47c-4.57-15.39-9.08-30.59-14-47-.85,3.45-1.61,5.78-2,8.17-1.45,9.52-5.11,18.7-1.23,28.77,4.37,11.33,3.78,11.56,16.14,10.52A6.84,6.84,0,0,0,1393.23,353.78ZM771.12,229.52c1.41-20.12-7.85-36-22-50.43.61,8,1.14,15.24,1.75,22.5a6.43,6.43,0,0,0,1,3.24C758.36,213.24,764.92,221.58,771.12,229.52ZM440.64,302.77l-.92-.52c-1.14,17.23-2.29,34.47-3.45,51.9h6.51C442.06,336.85,441.35,319.81,440.64,302.77Zm716.17,51.35c-1.18-17.6-2.34-34.76-3.5-51.92l-.91.07c-.7,17.19-1.41,34.38-2.12,51.85Zm-899.53-.38,1.28,1.15c1.28-1.1,3.19-2,3.73-3.36a154.65,154.65,0,0,0,6.38-18.84c1.07-4.4.74-9.14,1-13.72l-1.29-.09ZM794.76,210.17l1.35,0c.55-2.46,2.42-6.09,1.44-7.19-4.56-5.1-9.91-9.51-15-14.17l-1,1.12ZM194.69,353.56l1.37,1.38c1.22-1,3.35-1.9,3.51-3.07.78-5.63,1-11.34,1.49-17.16C193.66,339.65,195.5,347,194.69,353.56Z"/></g></g></svg>