<svg xmlns="http://www.w3.org/2000/svg" viewBox="0 0 23 40.12"><defs><style>.cls-1{fill: #FFF; fill-rule:evenodd;}</style></defs><g id="Layer_2" data-name="Layer 2"><g id="Layer_1-2" data-name="Layer 1"><path class="cls-1" d="M10.75,33.6l-.13.78.82.1.8-.06-.13-.88h-.73a3.31,3.31,0,0,0-.63,0Z"/><path class="cls-1" d="M10.54,34.88v.38l.9.06h.84v-.44h-.8A7.37,7.37,0,0,0,10.54,34.88Z"/><path class="cls-1" d="M10.44,35.63l-.13.5,1.09.13,1.17-.19-.15-.52-.88.1a6.85,6.85,0,0,0-1.11,0Z"/><path class="cls-1" d="M10.27,36.57l-.21.29,1.3.21,1.55-.23-.29-.31-1,.08a7.06,7.06,0,0,0-1.3,0Z"/><path class="cls-1" d="M10.27,37.16l.06.48,1.43.15.88-.23a3.53,3.53,0,0,0,0-.46l-1,.17a10.67,10.67,0,0,0-1.38-.1Z"/><path class="cls-1" d="M10.73,38.06l.08,1.49.75.57.46-.48.17-1.59H10.73Z"/><path class="cls-1" d="M10.86,31.31l-.06,1.85H12V31.32H10.86Z"/><path class="cls-1" d="M10.94,28.26h.92L12.15,31l-1.32.08s.08-2.85.1-2.81Z"/><path class="cls-1" d="M11,25.61l-.23,2.31L12,27.86l-.25-2.22H11Z"/><path class="cls-1" d="M11,22.34v2.79h.8l-.1-2.7a4,4,0,0,0-.69-.06Z"/><path class="cls-1" d="M11.36,19l-.25,2.91.69-.06-.23-3s-.25.08-.21.1Z"/><path class="cls-1" d="M11.42,13.33l-.17,1.76h.46S11.48,13.35,11.42,13.33Z"/><path class="cls-1" d="M11.26,15.51h.52L11.51,18s-.27-2.51-.25-2.51Z"/><path class="cls-1" d="M1.2,0l1,1.45.38-.26A17.31,17.31,0,0,0,1.2,0Z"/><path class="cls-1" d="M21.72,0l-1,1.45-.38-.26A17.31,17.31,0,0,1,21.72,0Z"/><path class="cls-1" d="M19.39,2.38l.38.26.75-.93-.46-.23s-.75.78-.66.9Z"/><path class="cls-1" d="M15.54,4.93l.46.33L16.78,5l2.61-2.09L19,2.49,16.43,4.58S15.51,4.84,15.54,4.93Z"/><path class="cls-1" d="M15.34,5.34l.26.34L14.6,7l-.46-.52S15.4,5.26,15.34,5.34Z"/><path class="cls-1" d="M13.59,7.71l.72-.44L14,6.81l-.55.52s.23.26.17.37Z"/><polygon class="cls-1" points="13.71 8.05 13.83 8.69 12.96 8.98 13.05 8.08 13.71 8.05 13.71 8.05"/><polygon class="cls-1" points="14.2 8.95 12.96 9.27 14.06 9.67 14.2 8.95 14.2 8.95"/><path class="cls-1" d="M15.44,8.91l-.17.92-.32.35-.23-.26L15,9.17,15,8.71s.58.14.4.2Z"/><path class="cls-1" d="M18,11.81l-.62-.55-.55.52.38.55s.86-.58.75-.49Z"/><path class="cls-1" d="M18.9,9.76l-.8,1.5-.58-.43.69-1.57s.72.43.69.49Z"/><path class="cls-1" d="M19.3,7.51l-.42,1.88L18.42,9s.77-1.7.89-1.5Z"/><path class="cls-1" d="M19.49,18.46l.26.34,1.56-.54a7,7,0,0,0-1.82.18Z"/><path class="cls-1" d="M19.14,18.58l.06.61-.58.15-.23-.55A3.21,3.21,0,0,0,19.14,18.58Z"/><path class="cls-1" d="M23,22.34l-1.41.53-.09-.55a12.51,12.51,0,0,1,1.5,0Z"/><path class="cls-1" d="M21.18,22.32V23l-.69-.05v-.66s.81,0,.75.08Z"/><path class="cls-1" d="M20.11,22.26,20,23l-.89.06-.06-.75s1-.18,1-.06Z"/><path class="cls-1" d="M20.19,33.34l-.26.38,1.68,1a15.1,15.1,0,0,0-1.42-1.35Z"/><path class="cls-1" d="M19.93,33l-.49.55-.55-.34.26-.52Z"/><path class="cls-1" d="M17.73,38.45l.58,1.15-1-1s.34-.41.46-.2Z"/><path class="cls-1" d="M17.06,37.48l-.52.61.55.34.37-.32s-.44-.86-.41-.63Z"/><path class="cls-1" d="M13.86,37.83l-.63.84-.49,1.13-.43-.14L12.42,38s1.38-.18,1.44-.15Z"/><polygon class="cls-1" points="14.18 38.35 14.74 39.13 14.13 39.77 13.53 39.39 13.7 38.47 14.18 38.35 14.18 38.35"/><path class="cls-1" d="M17.43,36.26l-.83,1.1-.72-.86-.59,0,.8.66s.09.55,0,.52l-1,1.07-.52-1-1-.2-.75.06V37l1.59-.15.72-.42h-.5l-1.5.41-.32-.37,2-.5,1.24-.61.87.28s.55.63.46.66Z"/><path class="cls-1" d="M18.23,33.66l-.45,1.93-1.47-.51-1.15.29-2.36.7-.15-.58,1.41-.09,2-1,1.12-.81a5.78,5.78,0,0,1,1.1.11Z"/><path class="cls-1" d="M16.15,33.93l-1.78,1-1.84.33v-.52L14,34.61l1.41-.53s.81-.18.72-.15Z"/><path class="cls-1" d="M16.64,33.53,14.25,34l-1.79.41-.12-.92,2.16.13,1.25-.36.89.23Z"/><path class="cls-1" d="M18.85,30.52v2.1l-.6.64-2.14-.48-2.78.48-1-.08-.11-1.92,1.59.28L15.39,31,17.14,30l1-.06c.23.17.46.35.67.54Z"/><path class="cls-1" d="M18.89,27.26l.53,1.55-.17.92-1.79-.17-3.28,1.7-1.82-.11-.19-3L14,28.06l2.07-.41,1.32-.78s1.47.08,1.47.37Z"/><polygon class="cls-1" points="18.62 24.44 19.44 26.28 17.77 26.31 14.95 27.65 12.32 27.87 12.17 25.42 14.33 25.12 15.94 24.33 17.09 24.04 18.62 24.44 18.62 24.44"/><path class="cls-1" d="M17.92,21.93l1.22,1.47-.14.66-2.42-.34-2.85,1.11-1.7.24V22.19l4-.37s1.9.08,2,.11Z"/><polygon class="cls-1" points="17.7 18.44 18.75 20.69 18.9 21.99 17.74 21.27 14.86 21.43 11.94 21.79 11.81 18.65 12.69 18.59 15.8 18.37 17.7 18.44 17.7 18.44"/><path class="cls-1" d="M17,15.51,18.77,18l-.17.35-1.07-.6-5,.57-.83-.1.16-2.8,3.52.16A15.17,15.17,0,0,0,17,15.56Z"/><path class="cls-1" d="M11.56,12.1l.24,3h1.93l2.27.16,1.15-.44-.93-1-1.5-.89-1.08-.67A8,8,0,0,0,11.56,12.1Z"/><path class="cls-1" d="M3.53,2.38l-.38.26L2.4,1.71l.46-.23s.75.78.66.9Z"/><path class="cls-1" d="M7.38,4.93l-.49.33L6.11,5,3.5,2.9l.38-.4L6.49,4.59s.92.26.89.35Z"/><path class="cls-1" d="M7.58,5.34l-.26.34,1,1.3.46-.52S7.52,5.26,7.58,5.34Z"/><path class="cls-1" d="M9.33,7.71l-.72-.45L9,6.8l.55.52s-.23.26-.17.37Z"/><polygon class="cls-1" points="9.21 8.05 9.09 8.69 9.96 8.98 9.87 8.08 9.21 8.05 9.21 8.05"/><polygon class="cls-1" points="8.72 8.94 9.96 9.27 8.86 9.67 8.72 8.94 8.72 8.94"/><path class="cls-1" d="M7.48,8.91l.17.92.32.35.23-.26L8,9.17l-.08-.46s-.58.14-.4.2Z"/><path class="cls-1" d="M5,11.81l.58-.57.55.52-.43.5s-.86-.58-.75-.49Z"/><path class="cls-1" d="M4,9.76l.8,1.47.58-.43L4.71,9.26S4,9.69,4,9.75Z"/><path class="cls-1" d="M3.62,7.51,4,9.39,4.46,9s-.77-1.7-.89-1.5Z"/><path class="cls-1" d="M3.43,18.46l-.26.34-1.56-.54a7,7,0,0,1,1.82.18Z"/><path class="cls-1" d="M3.77,18.58l-.06.61.58.15.23-.55A3.21,3.21,0,0,1,3.77,18.58Z"/><path class="cls-1" d="M0,22.34l1.41.53.09-.55a12.51,12.51,0,0,0-1.5,0Z"/><path class="cls-1" d="M1.74,22.32V23l.69-.05v-.66s-.81,0-.75.08Z"/><path class="cls-1" d="M2.81,22.26l.08.75.89.06.06-.75s-1-.18-1-.06Z"/><path class="cls-1" d="M2.73,33.34l.26.38-1.68,1a15.1,15.1,0,0,1,1.42-1.35Z"/><path class="cls-1" d="M3,33l.49.55L4,33.2l-.26-.52Z"/><path class="cls-1" d="M5.19,38.45,4.61,39.6l1-1s-.34-.41-.46-.2Z"/><path class="cls-1" d="M5.86,37.47l.52.61-.55.34-.37-.32s.44-.86.41-.63Z"/><path class="cls-1" d="M9.05,37.83l.63.84.49,1.13.43-.14L10.49,38s-1.38-.18-1.44-.15Z"/><polygon class="cls-1" points="8.73 38.35 8.18 39.13 8.79 39.77 9.39 39.39 9.22 38.47 8.73 38.35 8.73 38.35"/><path class="cls-1" d="M5.49,36.26l.83,1.1L7,36.5l.59,0-.8.66s-.09.55,0,.52l1,1.07.52-1,1-.2.75.06V37l-1.59-.15-.72-.42h.5l1.5.41.32-.37-2-.5-1.24-.61L6,35.62s-.55.63-.46.66Z"/><path class="cls-1" d="M4.69,33.66l.45,1.93,1.47-.51,1.15.29,2.36.7.15-.58L8.86,35.4l-2-1-1.12-.81a5.78,5.78,0,0,0-1.1.11Z"/><path class="cls-1" d="M6.76,33.93l1.78,1,1.84.38v-.52l-1.53-.18-1.41-.53s-.81-.18-.72-.15Z"/><path class="cls-1" d="M6.28,33.53,8.67,34l1.79.41.12-.92-2.16.13-1.25-.36-.89.23Z"/><path class="cls-1" d="M4.07,30.52v2.1l.6.64,2.14-.48,2.82.47,1-.08.07-1.91-1.59.28L7.53,31,5.78,30l-1-.06c-.23.17-.46.35-.67.54Z"/><path class="cls-1" d="M4,27.26l-.53,1.55.17.92,1.79-.17,3.31,1.7,1.82-.11.19-3-1.84-.09-2.07-.41L5.5,26.86S4,26.94,4,27.26Z"/><polygon class="cls-1" points="4.3 24.44 3.48 26.28 5.15 26.31 7.97 27.65 10.6 27.87 10.75 25.42 8.59 25.12 6.98 24.33 5.83 24.04 4.3 24.44 4.3 24.44"/><path class="cls-1" d="M5,21.93,3.78,23.4l.11.66,2.42-.34,2.85,1.11,1.7.24V22.19L7,21.82S5.1,21.9,5,21.93Z"/><polygon class="cls-1" points="5.22 18.44 4.17 20.69 4.02 21.99 5.18 21.27 8.06 21.42 10.98 21.79 11.11 18.65 10.23 18.59 7.12 18.37 5.22 18.44 5.22 18.44"/><path class="cls-1" d="M5.92,15.51,4.15,18l.17.35,1.07-.6,5,.57.87-.14-.16-2.8-3.52.16A15.17,15.17,0,0,1,6,15.52Z"/><path class="cls-1" d="M11.36,12.1l-.24,3H9.19l-2.29.16-1.15-.44.93-1,1.5-.89,1.1-.69a8,8,0,0,1,2.08-.16Z"/><path class="cls-1" d="M14,9.9,16,11.79l2.06,2.38.38,1.56L16.79,14l-1.74-1.43-1.91-.8c-2.49-.71-.94-.71-3.43,0l-1.91.8L6.1,14,4.45,15.73l.38-1.56,2.06-2.38L9,9.9c-.1,0,1.83-.44,2.41-.58h.16c.58.15,2.51.63,2.41.58Z"/></g></g></svg>